<svg width="394" height="137" viewBox="0 0 394 137" fill="none" xmlns="http://www.w3.org/2000/svg">
<path d="M84.336 69.936V39.888H92.784V68.304C92.784 73.424 93.68 77.264 95.472 79.824C97.264 82.384 99.92 83.664 103.44 83.664C105.744 83.664 107.952 83.184 110.064 82.224C112.24 81.2 114.192 79.76 115.92 77.904C117.648 76.048 118.992 73.84 119.952 71.28V39.888H128.4V80.4C128.4 81.424 128.592 82.192 128.976 82.704C129.424 83.152 130.128 83.408 131.088 83.472V90C130.128 90.128 129.36 90.192 128.784 90.192C128.272 90.256 127.76 90.288 127.248 90.288C125.648 90.288 124.272 89.808 123.12 88.848C121.968 87.824 121.36 86.576 121.296 85.104L121.104 79.248C118.928 82.96 115.984 85.84 112.272 87.888C108.624 89.936 104.624 90.96 100.272 90.96C95.024 90.96 91.056 89.2 88.368 85.68C85.68 82.096 84.336 76.848 84.336 69.936ZM168.2 90.96C164.296 90.96 160.744 90 157.544 88.08C154.344 86.16 151.816 83.664 149.96 80.592V90H142.472V19.92H150.92V49.872C153.032 46.608 155.624 43.984 158.696 42C161.768 40.016 165.352 39.024 169.448 39.024C172.904 39.024 176.008 39.76 178.76 41.232C181.512 42.64 183.848 44.592 185.768 47.088C187.752 49.52 189.256 52.304 190.28 55.44C191.368 58.512 191.912 61.744 191.912 65.136C191.912 68.656 191.304 71.984 190.088 75.12C188.936 78.192 187.272 80.944 185.096 83.376C182.92 85.744 180.392 87.6 177.512 88.944C174.696 90.288 171.592 90.96 168.2 90.96ZM166.088 83.664C168.584 83.664 170.888 83.152 173 82.128C175.112 81.104 176.936 79.728 178.472 78C180.008 76.272 181.192 74.288 182.024 72.048C182.856 69.808 183.272 67.504 183.272 65.136C183.272 61.872 182.568 58.8 181.16 55.92C179.816 53.04 177.896 50.736 175.4 49.008C172.968 47.216 170.12 46.32 166.856 46.32C164.488 46.32 162.28 46.864 160.232 47.952C158.184 49.04 156.36 50.48 154.76 52.272C153.224 54 151.944 55.92 150.92 58.032V72.528C151.24 74.128 151.912 75.6 152.936 76.944C153.96 78.288 155.208 79.472 156.68 80.496C158.152 81.456 159.688 82.224 161.288 82.8C162.952 83.376 164.552 83.664 166.088 83.664ZM245.773 90H237.325V61.968C237.325 56.848 236.397 53.008 234.541 50.448C232.749 47.888 230.157 46.608 226.765 46.608C224.589 46.608 222.381 47.184 220.141 48.336C217.965 49.488 216.045 51.056 214.381 53.04C212.717 54.96 211.501 57.2 210.733 59.76V90H202.285V19.92H210.733V50.64C212.717 47.056 215.405 44.24 218.797 42.192C222.253 40.08 225.965 39.024 229.933 39.024C232.941 39.024 235.437 39.568 237.421 40.656C239.469 41.68 241.101 43.152 242.317 45.072C243.533 46.992 244.397 49.232 244.909 51.792C245.485 54.288 245.773 57.04 245.773 60.048V90ZM254.974 75.504C254.974 72.304 255.87 69.552 257.662 67.248C259.518 64.88 262.046 63.056 265.246 61.776C268.446 60.496 272.158 59.856 276.382 59.856C278.622 59.856 280.99 60.048 283.486 60.432C285.982 60.752 288.19 61.264 290.11 61.968V58.32C290.11 54.48 288.958 51.472 286.654 49.296C284.35 47.056 281.086 45.936 276.862 45.936C274.11 45.936 271.454 46.448 268.894 47.472C266.398 48.432 263.742 49.84 260.926 51.696L257.854 45.744C261.118 43.504 264.382 41.84 267.646 40.752C270.91 39.6 274.302 39.024 277.822 39.024C284.222 39.024 289.278 40.816 292.99 44.4C296.702 47.92 298.558 52.848 298.558 59.184V80.4C298.558 81.424 298.75 82.192 299.134 82.704C299.582 83.152 300.286 83.408 301.246 83.472V90C300.414 90.128 299.678 90.224 299.038 90.288C298.462 90.352 297.982 90.384 297.598 90.384C295.614 90.384 294.11 89.84 293.086 88.752C292.126 87.664 291.582 86.512 291.454 85.296L291.262 82.128C289.086 84.944 286.238 87.12 282.718 88.656C279.198 90.192 275.71 90.96 272.254 90.96C268.926 90.96 265.95 90.288 263.326 88.944C260.702 87.536 258.654 85.68 257.182 83.376C255.71 81.008 254.974 78.384 254.974 75.504ZM287.614 79.056C288.382 78.16 288.99 77.264 289.438 76.368C289.886 75.408 290.11 74.608 290.11 73.968V67.728C288.126 66.96 286.046 66.384 283.87 66C281.694 65.552 279.55 65.328 277.438 65.328C273.15 65.328 269.662 66.192 266.974 67.92C264.35 69.584 263.038 71.888 263.038 74.832C263.038 76.432 263.454 78 264.286 79.536C265.182 81.008 266.462 82.224 268.126 83.184C269.854 84.144 271.966 84.624 274.462 84.624C277.086 84.624 279.582 84.112 281.95 83.088C284.318 82 286.206 80.656 287.614 79.056ZM387.618 90H379.17V61.968C379.17 56.72 378.306 52.848 376.578 50.352C374.914 47.856 372.418 46.608 369.09 46.608C365.698 46.608 362.626 47.856 359.874 50.352C357.122 52.784 355.17 55.952 354.018 59.856V90H345.57V61.968C345.57 56.656 344.738 52.784 343.074 50.352C341.41 47.856 338.914 46.608 335.586 46.608C332.258 46.608 329.186 47.824 326.37 50.256C323.618 52.624 321.666 55.792 320.514 59.76V90H312.066V39.888H319.746V50.64C321.794 46.928 324.45 44.08 327.714 42.096C330.978 40.048 334.658 39.024 338.754 39.024C342.914 39.024 346.242 40.176 348.738 42.48C351.234 44.72 352.77 47.632 353.346 51.216C355.586 47.248 358.306 44.24 361.506 42.192C364.706 40.08 368.354 39.024 372.45 39.024C375.33 39.024 377.73 39.568 379.65 40.656C381.634 41.68 383.202 43.152 384.354 45.072C385.506 46.928 386.338 49.136 386.85 51.696C387.362 54.256 387.618 57.04 387.618 60.048V90Z" fill="white"/>
<path d="M64.9791 93.1914C61.3697 96.2688 57.0742 97.6403 52.6863 98.8101C48.8248 99.8396 44.9287 100.687 40.945 101.061C39.3877 101.207 37.8253 101.285 36.2766 100.944C36.111 100.908 35.9274 100.903 35.8776 100.584C36.4929 100.212 37.1926 100.436 37.8454 100.392C43.1449 100.036 48.1332 98.7237 52.4572 95.4682C55.3843 93.2644 57.5874 90.4575 58.303 86.7965C59.3755 81.3092 57.8458 76.6391 53.4933 73.0036C50.2525 70.2968 46.5524 68.367 42.8133 66.5009C36.4925 63.3463 29.9596 60.6478 23.6178 57.5463C18.5571 55.0713 13.5841 52.3954 9.51828 48.3222C5.15739 43.9534 2.06446 38.9687 2.05519 32.5653C2.04861 28.0171 3.76532 24.0268 6.59524 20.5327C12.3088 13.4783 19.8772 9.74372 28.6563 8.38868C32.0502 7.86484 35.5117 7.90543 38.9446 8.30223C39.1633 8.3275 39.4437 8.2629 39.5904 8.71931C38.2178 8.91153 36.8775 9.12832 35.5301 9.28243C31.5266 9.74031 27.6564 10.6163 24.1856 12.8092C20.6895 15.0182 19.0777 18.3417 18.4033 22.33C17.4085 28.2124 20.6006 31.9532 24.7321 35.1979C30.2037 39.495 36.4639 42.3959 42.7264 45.2795C48.8884 48.1167 55.1061 50.8503 60.7968 54.6091C64.4523 57.0236 67.8015 59.7965 70.3348 63.4403C75.5809 70.9863 75.1531 81.298 69.3195 88.57C68.0077 90.2052 66.6794 91.8239 64.9791 93.1914Z" fill="white"/>
<path d="M0.0490653 77.8349C1.13863 72.9027 4.16833 69.9695 9.03232 69.1439C12.9187 68.4841 16.256 69.856 18.7401 72.8782C22.4904 77.4411 21.9734 83.7826 17.5188 87.6552C14.4797 90.2974 10.8666 90.8171 7.08041 89.5941C3.21425 88.3453 0.971823 85.5915 0.18308 81.635C-0.0630577 80.4003 -0.00884019 79.1661 0.0490653 77.8349Z" fill="white"/>
<path d="M72.0596 22.4335C73.8088 28.2645 71.4492 33.894 66.1502 35.9465C57.911 39.1377 51.0409 32.5666 51.4028 25.9952C51.6614 21.3002 54.4402 17.3267 59.0135 15.9555C63.3633 14.6512 68.4993 16.4827 70.9321 20.2389C71.3625 20.9035 71.6678 21.6484 72.0596 22.4335Z" fill="white"/>
<path d="M125.04 131V113.96H132.144C132.896 113.96 133.584 114.12 134.208 114.44C134.832 114.744 135.376 115.16 135.84 115.688C136.304 116.2 136.664 116.784 136.92 117.44C137.176 118.08 137.304 118.736 137.304 119.408C137.304 120.336 137.096 121.224 136.68 122.072C136.264 122.904 135.68 123.584 134.928 124.112C134.176 124.624 133.296 124.88 132.288 124.88H127.2V131H125.04ZM127.2 122.96H132.168C132.76 122.96 133.272 122.8 133.704 122.48C134.152 122.16 134.496 121.728 134.736 121.184C134.992 120.64 135.12 120.048 135.12 119.408C135.12 118.736 134.976 118.136 134.688 117.608C134.4 117.064 134.024 116.64 133.56 116.336C133.096 116.032 132.584 115.88 132.024 115.88H127.2V122.96ZM146.905 131.12C145.705 131.12 144.617 130.88 143.641 130.4C142.665 129.92 141.817 129.272 141.097 128.456C140.393 127.624 139.849 126.696 139.465 125.672C139.081 124.632 138.889 123.568 138.889 122.48C138.889 121.344 139.089 120.264 139.489 119.24C139.905 118.2 140.473 117.28 141.193 116.48C141.929 115.664 142.785 115.024 143.761 114.56C144.737 114.08 145.801 113.84 146.953 113.84C148.153 113.84 149.241 114.088 150.217 114.584C151.193 115.08 152.033 115.744 152.737 116.576C153.441 117.408 153.985 118.336 154.369 119.36C154.753 120.384 154.945 121.432 154.945 122.504C154.945 123.64 154.745 124.728 154.345 125.768C153.945 126.792 153.377 127.712 152.641 128.528C151.921 129.328 151.073 129.96 150.097 130.424C149.121 130.888 148.057 131.12 146.905 131.12ZM141.073 122.48C141.073 123.344 141.209 124.184 141.481 125C141.769 125.8 142.169 126.512 142.681 127.136C143.193 127.76 143.809 128.256 144.529 128.624C145.249 128.992 146.049 129.176 146.929 129.176C147.841 129.176 148.657 128.984 149.377 128.6C150.097 128.216 150.705 127.704 151.201 127.064C151.713 126.424 152.097 125.704 152.353 124.904C152.625 124.104 152.761 123.296 152.761 122.48C152.761 121.616 152.617 120.784 152.329 119.984C152.057 119.184 151.657 118.472 151.129 117.848C150.617 117.208 150.001 116.712 149.281 116.36C148.577 115.992 147.793 115.808 146.929 115.808C146.017 115.808 145.201 116 144.481 116.384C143.761 116.752 143.145 117.256 142.633 117.896C142.137 118.536 141.753 119.256 141.481 120.056C141.209 120.84 141.073 121.648 141.073 122.48ZM157.946 131V113.96H165.242C165.994 113.96 166.682 114.12 167.306 114.44C167.93 114.744 168.474 115.16 168.938 115.688C169.402 116.2 169.762 116.784 170.018 117.44C170.274 118.08 170.402 118.736 170.402 119.408C170.402 120.192 170.25 120.936 169.946 121.64C169.658 122.344 169.242 122.944 168.698 123.44C168.17 123.936 167.546 124.28 166.826 124.472L170.954 131H168.506L164.618 124.88H160.106V131H157.946ZM160.106 122.96H165.266C165.858 122.96 166.37 122.8 166.802 122.48C167.25 122.144 167.594 121.704 167.834 121.16C168.09 120.616 168.218 120.032 168.218 119.408C168.218 118.768 168.074 118.184 167.786 117.656C167.498 117.112 167.122 116.68 166.658 116.36C166.194 116.04 165.682 115.88 165.122 115.88H160.106V122.96ZM185.867 115.88H179.987V131H177.827V115.88H171.947V113.96H185.867V115.88ZM188.321 131V113.96H199.577V115.88H190.481V121.568H198.137V123.368H190.481V131H188.321ZM208.921 131.12C207.721 131.12 206.633 130.88 205.657 130.4C204.681 129.92 203.833 129.272 203.113 128.456C202.409 127.624 201.865 126.696 201.481 125.672C201.097 124.632 200.905 123.568 200.905 122.48C200.905 121.344 201.105 120.264 201.505 119.24C201.921 118.2 202.489 117.28 203.209 116.48C203.945 115.664 204.801 115.024 205.777 114.56C206.753 114.08 207.817 113.84 208.969 113.84C210.169 113.84 211.257 114.088 212.233 114.584C213.209 115.08 214.049 115.744 214.753 116.576C215.457 117.408 216.001 118.336 216.385 119.36C216.769 120.384 216.961 121.432 216.961 122.504C216.961 123.64 216.761 124.728 216.361 125.768C215.961 126.792 215.393 127.712 214.657 128.528C213.937 129.328 213.089 129.96 212.113 130.424C211.137 130.888 210.073 131.12 208.921 131.12ZM203.089 122.48C203.089 123.344 203.225 124.184 203.497 125C203.785 125.8 204.185 126.512 204.697 127.136C205.209 127.76 205.825 128.256 206.545 128.624C207.265 128.992 208.065 129.176 208.945 129.176C209.857 129.176 210.673 128.984 211.393 128.6C212.113 128.216 212.721 127.704 213.217 127.064C213.729 126.424 214.113 125.704 214.369 124.904C214.641 124.104 214.777 123.296 214.777 122.48C214.777 121.616 214.633 120.784 214.345 119.984C214.073 119.184 213.673 118.472 213.145 117.848C212.633 117.208 212.017 116.712 211.297 116.36C210.593 115.992 209.809 115.808 208.945 115.808C208.033 115.808 207.217 116 206.497 116.384C205.777 116.752 205.161 117.256 204.649 117.896C204.153 118.536 203.769 119.256 203.497 120.056C203.225 120.84 203.089 121.648 203.089 122.48ZM219.962 131V113.96H222.122V129.08H231.626V131H219.962ZM233.978 131V113.96H236.138V131H233.978ZM247.124 131.12C245.924 131.12 244.836 130.88 243.86 130.4C242.884 129.92 242.036 129.272 241.316 128.456C240.612 127.624 240.068 126.696 239.684 125.672C239.3 124.632 239.108 123.568 239.108 122.48C239.108 121.344 239.308 120.264 239.708 119.24C240.124 118.2 240.692 117.28 241.412 116.48C242.148 115.664 243.004 115.024 243.98 114.56C244.956 114.08 246.02 113.84 247.172 113.84C248.372 113.84 249.46 114.088 250.436 114.584C251.412 115.08 252.252 115.744 252.956 116.576C253.66 117.408 254.204 118.336 254.588 119.36C254.972 120.384 255.164 121.432 255.164 122.504C255.164 123.64 254.964 124.728 254.564 125.768C254.164 126.792 253.596 127.712 252.86 128.528C252.14 129.328 251.292 129.96 250.316 130.424C249.34 130.888 248.276 131.12 247.124 131.12ZM241.292 122.48C241.292 123.344 241.428 124.184 241.7 125C241.988 125.8 242.388 126.512 242.9 127.136C243.412 127.76 244.028 128.256 244.748 128.624C245.468 128.992 246.268 129.176 247.148 129.176C248.06 129.176 248.876 128.984 249.596 128.6C250.316 128.216 250.924 127.704 251.42 127.064C251.932 126.424 252.316 125.704 252.572 124.904C252.844 124.104 252.98 123.296 252.98 122.48C252.98 121.616 252.836 120.784 252.548 119.984C252.276 119.184 251.876 118.472 251.348 117.848C250.836 117.208 250.22 116.712 249.5 116.36C248.796 115.992 248.012 115.808 247.148 115.808C246.236 115.808 245.42 116 244.7 116.384C243.98 116.752 243.364 117.256 242.852 117.896C242.356 118.536 241.972 119.256 241.7 120.056C241.428 120.84 241.292 121.648 241.292 122.48Z" fill="white"/>
<line y1="-1" x2="110" y2="-1" transform="matrix(-1 0 0 1 372 125)" stroke="white" stroke-width="2"/>
<line x1="8" y1="124" x2="118" y2="124" stroke="white" stroke-width="2"/>
</svg>
