<svg width="390" height="138" viewBox="0 0 390 138" fill="none" xmlns="http://www.w3.org/2000/svg">
<path d="M80.336 69.936V39.888H88.784V68.304C88.784 73.424 89.68 77.264 91.472 79.824C93.264 82.384 95.92 83.664 99.44 83.664C101.744 83.664 103.952 83.184 106.064 82.224C108.24 81.2 110.192 79.76 111.92 77.904C113.648 76.048 114.992 73.84 115.952 71.28V39.888H124.4V80.4C124.4 81.424 124.592 82.192 124.976 82.704C125.424 83.152 126.128 83.408 127.088 83.472V90C126.128 90.128 125.36 90.192 124.784 90.192C124.272 90.256 123.76 90.288 123.248 90.288C121.648 90.288 120.272 89.808 119.12 88.848C117.968 87.824 117.36 86.576 117.296 85.104L117.104 79.248C114.928 82.96 111.984 85.84 108.272 87.888C104.624 89.936 100.624 90.96 96.272 90.96C91.024 90.96 87.056 89.2 84.368 85.68C81.68 82.096 80.336 76.848 80.336 69.936ZM164.2 90.96C160.296 90.96 156.744 90 153.544 88.08C150.344 86.16 147.816 83.664 145.96 80.592V90H138.472V19.92H146.92V49.872C149.032 46.608 151.624 43.984 154.696 42C157.768 40.016 161.352 39.024 165.448 39.024C168.904 39.024 172.008 39.76 174.76 41.232C177.512 42.64 179.848 44.592 181.768 47.088C183.752 49.52 185.256 52.304 186.28 55.44C187.368 58.512 187.912 61.744 187.912 65.136C187.912 68.656 187.304 71.984 186.088 75.12C184.936 78.192 183.272 80.944 181.096 83.376C178.92 85.744 176.392 87.6 173.512 88.944C170.696 90.288 167.592 90.96 164.2 90.96ZM162.088 83.664C164.584 83.664 166.888 83.152 169 82.128C171.112 81.104 172.936 79.728 174.472 78C176.008 76.272 177.192 74.288 178.024 72.048C178.856 69.808 179.272 67.504 179.272 65.136C179.272 61.872 178.568 58.8 177.16 55.92C175.816 53.04 173.896 50.736 171.4 49.008C168.968 47.216 166.12 46.32 162.856 46.32C160.488 46.32 158.28 46.864 156.232 47.952C154.184 49.04 152.36 50.48 150.76 52.272C149.224 54 147.944 55.92 146.92 58.032V72.528C147.24 74.128 147.912 75.6 148.936 76.944C149.96 78.288 151.208 79.472 152.68 80.496C154.152 81.456 155.688 82.224 157.288 82.8C158.952 83.376 160.552 83.664 162.088 83.664ZM241.773 90H233.325V61.968C233.325 56.848 232.397 53.008 230.541 50.448C228.749 47.888 226.157 46.608 222.765 46.608C220.589 46.608 218.381 47.184 216.141 48.336C213.965 49.488 212.045 51.056 210.381 53.04C208.717 54.96 207.501 57.2 206.733 59.76V90H198.285V19.92H206.733V50.64C208.717 47.056 211.405 44.24 214.797 42.192C218.253 40.08 221.965 39.024 225.933 39.024C228.941 39.024 231.437 39.568 233.421 40.656C235.469 41.68 237.101 43.152 238.317 45.072C239.533 46.992 240.397 49.232 240.909 51.792C241.485 54.288 241.773 57.04 241.773 60.048V90ZM250.974 75.504C250.974 72.304 251.87 69.552 253.662 67.248C255.518 64.88 258.046 63.056 261.246 61.776C264.446 60.496 268.158 59.856 272.382 59.856C274.622 59.856 276.99 60.048 279.486 60.432C281.982 60.752 284.19 61.264 286.11 61.968V58.32C286.11 54.48 284.958 51.472 282.654 49.296C280.35 47.056 277.086 45.936 272.862 45.936C270.11 45.936 267.454 46.448 264.894 47.472C262.398 48.432 259.742 49.84 256.926 51.696L253.854 45.744C257.118 43.504 260.382 41.84 263.646 40.752C266.91 39.6 270.302 39.024 273.822 39.024C280.222 39.024 285.278 40.816 288.99 44.4C292.702 47.92 294.558 52.848 294.558 59.184V80.4C294.558 81.424 294.75 82.192 295.134 82.704C295.582 83.152 296.286 83.408 297.246 83.472V90C296.414 90.128 295.678 90.224 295.038 90.288C294.462 90.352 293.982 90.384 293.598 90.384C291.614 90.384 290.11 89.84 289.086 88.752C288.126 87.664 287.582 86.512 287.454 85.296L287.262 82.128C285.086 84.944 282.238 87.12 278.718 88.656C275.198 90.192 271.71 90.96 268.254 90.96C264.926 90.96 261.95 90.288 259.326 88.944C256.702 87.536 254.654 85.68 253.182 83.376C251.71 81.008 250.974 78.384 250.974 75.504ZM283.614 79.056C284.382 78.16 284.99 77.264 285.438 76.368C285.886 75.408 286.11 74.608 286.11 73.968V67.728C284.126 66.96 282.046 66.384 279.87 66C277.694 65.552 275.55 65.328 273.438 65.328C269.15 65.328 265.662 66.192 262.974 67.92C260.35 69.584 259.038 71.888 259.038 74.832C259.038 76.432 259.454 78 260.286 79.536C261.182 81.008 262.462 82.224 264.126 83.184C265.854 84.144 267.966 84.624 270.462 84.624C273.086 84.624 275.582 84.112 277.95 83.088C280.318 82 282.206 80.656 283.614 79.056ZM383.618 90H375.17V61.968C375.17 56.72 374.306 52.848 372.578 50.352C370.914 47.856 368.418 46.608 365.09 46.608C361.698 46.608 358.626 47.856 355.874 50.352C353.122 52.784 351.17 55.952 350.018 59.856V90H341.57V61.968C341.57 56.656 340.738 52.784 339.074 50.352C337.41 47.856 334.914 46.608 331.586 46.608C328.258 46.608 325.186 47.824 322.37 50.256C319.618 52.624 317.666 55.792 316.514 59.76V90H308.066V39.888H315.746V50.64C317.794 46.928 320.45 44.08 323.714 42.096C326.978 40.048 330.658 39.024 334.754 39.024C338.914 39.024 342.242 40.176 344.738 42.48C347.234 44.72 348.77 47.632 349.346 51.216C351.586 47.248 354.306 44.24 357.506 42.192C360.706 40.08 364.354 39.024 368.45 39.024C371.33 39.024 373.73 39.568 375.65 40.656C377.634 41.68 379.202 43.152 380.354 45.072C381.506 46.928 382.338 49.136 382.85 51.696C383.362 54.256 383.618 57.04 383.618 60.048V90Z" fill="white"/>
<path d="M64.9791 94.1914C61.3697 97.2688 57.0742 98.6403 52.6863 99.8101C48.8248 100.84 44.9287 101.687 40.945 102.061C39.3877 102.207 37.8253 102.285 36.2766 101.944C36.111 101.908 35.9274 101.903 35.8776 101.584C36.4929 101.212 37.1926 101.436 37.8454 101.392C43.1449 101.036 48.1332 99.7237 52.4572 96.4682C55.3843 94.2644 57.5874 91.4575 58.303 87.7965C59.3755 82.3092 57.8458 77.6391 53.4933 74.0036C50.2525 71.2968 46.5524 69.367 42.8133 67.5009C36.4925 64.3463 29.9596 61.6478 23.6178 58.5463C18.5571 56.0713 13.5841 53.3954 9.51828 49.3222C5.15739 44.9534 2.06446 39.9687 2.05519 33.5653C2.04861 29.0171 3.76532 25.0268 6.59524 21.5327C12.3088 14.4783 19.8772 10.7437 28.6563 9.38868C32.0502 8.86484 35.5117 8.90543 38.9446 9.30223C39.1633 9.3275 39.4437 9.2629 39.5904 9.71931C38.2178 9.91153 36.8775 10.1283 35.5301 10.2824C31.5266 10.7403 27.6564 11.6163 24.1856 13.8092C20.6895 16.0182 19.0777 19.3417 18.4033 23.33C17.4085 29.2124 20.6006 32.9532 24.7321 36.1979C30.2037 40.495 36.4639 43.3959 42.7264 46.2795C48.8884 49.1167 55.1061 51.8503 60.7968 55.6091C64.4523 58.0236 67.8015 60.7965 70.3348 64.4403C75.5809 71.9863 75.1531 82.298 69.3195 89.57C68.0077 91.2052 66.6794 92.8239 64.9791 94.1914Z" fill="url(#paint0_linear_127_2)"/>
<path d="M0.0490653 78.8349C1.13863 73.9027 4.16833 70.9695 9.03232 70.1439C12.9187 69.4841 16.256 70.856 18.7401 73.8782C22.4904 78.4411 21.9734 84.7826 17.5188 88.6552C14.4797 91.2974 10.8666 91.8171 7.08041 90.5941C3.21425 89.3453 0.971823 86.5915 0.18308 82.635C-0.0630577 81.4003 -0.00884019 80.1661 0.0490653 78.8349Z" fill="#fff"/>
<path d="M72.0596 23.4335C73.8088 29.2645 71.4492 34.894 66.1502 36.9465C57.911 40.1377 51.0409 33.5666 51.4028 26.9952C51.6614 22.3002 54.4402 18.3267 59.0135 16.9555C63.3633 15.6512 68.4993 17.4827 70.9321 21.2389C71.3625 21.9035 71.6678 22.6484 72.0596 23.4335Z" fill="#fff"/>
<path d="M125.04 132V114.96H132.144C132.896 114.96 133.584 115.12 134.208 115.44C134.832 115.744 135.376 116.16 135.84 116.688C136.304 117.2 136.664 117.784 136.92 118.44C137.176 119.08 137.304 119.736 137.304 120.408C137.304 121.336 137.096 122.224 136.68 123.072C136.264 123.904 135.68 124.584 134.928 125.112C134.176 125.624 133.296 125.88 132.288 125.88H127.2V132H125.04ZM127.2 123.96H132.168C132.76 123.96 133.272 123.8 133.704 123.48C134.152 123.16 134.496 122.728 134.736 122.184C134.992 121.64 135.12 121.048 135.12 120.408C135.12 119.736 134.976 119.136 134.688 118.608C134.4 118.064 134.024 117.64 133.56 117.336C133.096 117.032 132.584 116.88 132.024 116.88H127.2V123.96ZM146.905 132.12C145.705 132.12 144.617 131.88 143.641 131.4C142.665 130.92 141.817 130.272 141.097 129.456C140.393 128.624 139.849 127.696 139.465 126.672C139.081 125.632 138.889 124.568 138.889 123.48C138.889 122.344 139.089 121.264 139.489 120.24C139.905 119.2 140.473 118.28 141.193 117.48C141.929 116.664 142.785 116.024 143.761 115.56C144.737 115.08 145.801 114.84 146.953 114.84C148.153 114.84 149.241 115.088 150.217 115.584C151.193 116.08 152.033 116.744 152.737 117.576C153.441 118.408 153.985 119.336 154.369 120.36C154.753 121.384 154.945 122.432 154.945 123.504C154.945 124.64 154.745 125.728 154.345 126.768C153.945 127.792 153.377 128.712 152.641 129.528C151.921 130.328 151.073 130.96 150.097 131.424C149.121 131.888 148.057 132.12 146.905 132.12ZM141.073 123.48C141.073 124.344 141.209 125.184 141.481 126C141.769 126.8 142.169 127.512 142.681 128.136C143.193 128.76 143.809 129.256 144.529 129.624C145.249 129.992 146.049 130.176 146.929 130.176C147.841 130.176 148.657 129.984 149.377 129.6C150.097 129.216 150.705 128.704 151.201 128.064C151.713 127.424 152.097 126.704 152.353 125.904C152.625 125.104 152.761 124.296 152.761 123.48C152.761 122.616 152.617 121.784 152.329 120.984C152.057 120.184 151.657 119.472 151.129 118.848C150.617 118.208 150.001 117.712 149.281 117.36C148.577 116.992 147.793 116.808 146.929 116.808C146.017 116.808 145.201 117 144.481 117.384C143.761 117.752 143.145 118.256 142.633 118.896C142.137 119.536 141.753 120.256 141.481 121.056C141.209 121.84 141.073 122.648 141.073 123.48ZM157.946 132V114.96H165.242C165.994 114.96 166.682 115.12 167.306 115.44C167.93 115.744 168.474 116.16 168.938 116.688C169.402 117.2 169.762 117.784 170.018 118.44C170.274 119.08 170.402 119.736 170.402 120.408C170.402 121.192 170.25 121.936 169.946 122.64C169.658 123.344 169.242 123.944 168.698 124.44C168.17 124.936 167.546 125.28 166.826 125.472L170.954 132H168.506L164.618 125.88H160.106V132H157.946ZM160.106 123.96H165.266C165.858 123.96 166.37 123.8 166.802 123.48C167.25 123.144 167.594 122.704 167.834 122.16C168.09 121.616 168.218 121.032 168.218 120.408C168.218 119.768 168.074 119.184 167.786 118.656C167.498 118.112 167.122 117.68 166.658 117.36C166.194 117.04 165.682 116.88 165.122 116.88H160.106V123.96ZM185.867 116.88H179.987V132H177.827V116.88H171.947V114.96H185.867V116.88ZM188.321 132V114.96H199.577V116.88H190.481V122.568H198.137V124.368H190.481V132H188.321ZM208.921 132.12C207.721 132.12 206.633 131.88 205.657 131.4C204.681 130.92 203.833 130.272 203.113 129.456C202.409 128.624 201.865 127.696 201.481 126.672C201.097 125.632 200.905 124.568 200.905 123.48C200.905 122.344 201.105 121.264 201.505 120.24C201.921 119.2 202.489 118.28 203.209 117.48C203.945 116.664 204.801 116.024 205.777 115.56C206.753 115.08 207.817 114.84 208.969 114.84C210.169 114.84 211.257 115.088 212.233 115.584C213.209 116.08 214.049 116.744 214.753 117.576C215.457 118.408 216.001 119.336 216.385 120.36C216.769 121.384 216.961 122.432 216.961 123.504C216.961 124.64 216.761 125.728 216.361 126.768C215.961 127.792 215.393 128.712 214.657 129.528C213.937 130.328 213.089 130.96 212.113 131.424C211.137 131.888 210.073 132.12 208.921 132.12ZM203.089 123.48C203.089 124.344 203.225 125.184 203.497 126C203.785 126.8 204.185 127.512 204.697 128.136C205.209 128.76 205.825 129.256 206.545 129.624C207.265 129.992 208.065 130.176 208.945 130.176C209.857 130.176 210.673 129.984 211.393 129.6C212.113 129.216 212.721 128.704 213.217 128.064C213.729 127.424 214.113 126.704 214.369 125.904C214.641 125.104 214.777 124.296 214.777 123.48C214.777 122.616 214.633 121.784 214.345 120.984C214.073 120.184 213.673 119.472 213.145 118.848C212.633 118.208 212.017 117.712 211.297 117.36C210.593 116.992 209.809 116.808 208.945 116.808C208.033 116.808 207.217 117 206.497 117.384C205.777 117.752 205.161 118.256 204.649 118.896C204.153 119.536 203.769 120.256 203.497 121.056C203.225 121.84 203.089 122.648 203.089 123.48ZM219.962 132V114.96H222.122V130.08H231.626V132H219.962ZM233.978 132V114.96H236.138V132H233.978ZM247.124 132.12C245.924 132.12 244.836 131.88 243.86 131.4C242.884 130.92 242.036 130.272 241.316 129.456C240.612 128.624 240.068 127.696 239.684 126.672C239.3 125.632 239.108 124.568 239.108 123.48C239.108 122.344 239.308 121.264 239.708 120.24C240.124 119.2 240.692 118.28 241.412 117.48C242.148 116.664 243.004 116.024 243.98 115.56C244.956 115.08 246.02 114.84 247.172 114.84C248.372 114.84 249.46 115.088 250.436 115.584C251.412 116.08 252.252 116.744 252.956 117.576C253.66 118.408 254.204 119.336 254.588 120.36C254.972 121.384 255.164 122.432 255.164 123.504C255.164 124.64 254.964 125.728 254.564 126.768C254.164 127.792 253.596 128.712 252.86 129.528C252.14 130.328 251.292 130.96 250.316 131.424C249.34 131.888 248.276 132.12 247.124 132.12ZM241.292 123.48C241.292 124.344 241.428 125.184 241.7 126C241.988 126.8 242.388 127.512 242.9 128.136C243.412 128.76 244.028 129.256 244.748 129.624C245.468 129.992 246.268 130.176 247.148 130.176C248.06 130.176 248.876 129.984 249.596 129.6C250.316 129.216 250.924 128.704 251.42 128.064C251.932 127.424 252.316 126.704 252.572 125.904C252.844 125.104 252.98 124.296 252.98 123.48C252.98 122.616 252.836 121.784 252.548 120.984C252.276 120.184 251.876 119.472 251.348 118.848C250.836 118.208 250.22 117.712 249.5 117.36C248.796 116.992 248.012 116.808 247.148 116.808C246.236 116.808 245.42 117 244.7 117.384C243.98 117.752 243.364 118.256 242.852 118.896C242.356 119.536 241.972 120.256 241.7 121.056C241.428 121.84 241.292 122.648 241.292 123.48Z" fill="url(#paint1_linear_127_2)"/>
<line y1="-1" x2="110" y2="-1" transform="matrix(-1 0 0 1 372 126)" stroke="url(#paint2_linear_127_2)" stroke-width="2"/>
<line x1="8" y1="125" x2="118" y2="125" stroke="url(#paint3_linear_127_2)" stroke-width="2"/>
<defs>
<linearGradient id="paint0_linear_127_2" x1="2.38914" y1="9" x2="74.0019" y2="102.238" gradientUnits="userSpaceOnUse">
<stop stop-color="#fff"/>
<stop offset="1" stop-color="#fff"/>
</linearGradient>
<linearGradient id="paint1_linear_127_2" x1="123" y1="110" x2="128.487" y2="154.02" gradientUnits="userSpaceOnUse">
<stop stop-color="#fff"/>
<stop offset="1" stop-color="#fff"/>
</linearGradient>
<linearGradient id="paint2_linear_127_2" x1="-4.26089e-06" y1="-1.49969" x2="110" y2="0.000312628" gradientUnits="userSpaceOnUse">
<stop stop-color="#fff"/>
<stop offset="1" stop-color="#fff"/>
</linearGradient>
<linearGradient id="paint3_linear_127_2" x1="8" y1="124.5" x2="118" y2="126" gradientUnits="userSpaceOnUse">
<stop stop-color="#fff"/>
<stop offset="1" stop-color="#fff"/>
</linearGradient>
</defs>
</svg>
